<svg xmlns="http://www.w3.org/2000/svg" xmlns:xlink="http://www.w3.org/1999/xlink" version="1.1" class="marks" width="1065" height="409" viewBox="0 0 1065 409"><rect width="1065" height="409" fill="white"/><g fill="none" stroke-miterlimit="10" transform="translate(47,10)"><g class="mark-group role-frame root" role="graphics-object" aria-roledescription="group mark container"><g transform="translate(0,0)"><path class="background" aria-hidden="true" d="M0.5,0.5h1012v300h-1012Z" stroke="#ddd"/><g><g class="mark-group role-axis" aria-hidden="true"><g transform="translate(0.5,300.5)"><path class="background" aria-hidden="true" d="M0,0h0v0h0Z" pointer-events="none"/><g><g class="mark-rule role-axis-grid" pointer-events="none"><line transform="translate(0,-300)" x2="0" y2="300" stroke="#ddd" stroke-width="1" opacity="1"/><line transform="translate(34,-300)" x2="0" y2="300" stroke="#ddd" stroke-width="1" opacity="1"/><line transform="translate(67,-300)" x2="0" y2="300" stroke="#ddd" stroke-width="1" opacity="1"/><line transform="translate(101,-300)" x2="0" y2="300" stroke="#ddd" stroke-width="1" opacity="1"/><line transform="translate(135,-300)" x2="0" y2="300" stroke="#ddd" stroke-width="1" opacity="1"/><line transform="translate(169,-300)" x2="0" y2="300" stroke="#ddd" stroke-width="1" opacity="1"/><line transform="translate(202,-300)" x2="0" y2="300" stroke="#ddd" stroke-width="1" opacity="1"/><line transform="translate(236,-300)" x2="0" y2="300" stroke="#ddd" stroke-width="1" opacity="1"/><line transform="translate(270,-300)" x2="0" y2="300" stroke="#ddd" stroke-width="1" opacity="1"/><line transform="translate(304,-300)" x2="0" y2="300" stroke="#ddd" stroke-width="1" opacity="1"/><line transform="translate(337,-300)" x2="0" y2="300" stroke="#ddd" stroke-width="1" opacity="1"/><line transform="translate(371,-300)" x2="0" y2="300" stroke="#ddd" stroke-width="1" opacity="1"/><line transform="translate(405,-300)" x2="0" y2="300" stroke="#ddd" stroke-width="1" opacity="1"/><line transform="translate(439,-300)" x2="0" y2="300" stroke="#ddd" stroke-width="1" opacity="1"/><line transform="translate(472,-300)" x2="0" y2="300" stroke="#ddd" stroke-width="1" opacity="1"/><line transform="translate(506,-300)" x2="0" y2="300" stroke="#ddd" stroke-width="1" opacity="1"/><line transform="translate(540,-300)" x2="0" y2="300" stroke="#ddd" stroke-width="1" opacity="1"/><line transform="translate(573,-300)" x2="0" y2="300" stroke="#ddd" stroke-width="1" opacity="1"/><line transform="translate(607,-300)" x2="0" y2="300" stroke="#ddd" stroke-width="1" opacity="1"/><line transform="translate(641,-300)" x2="0" y2="300" stroke="#ddd" stroke-width="1" opacity="1"/><line transform="translate(675,-300)" x2="0" y2="300" stroke="#ddd" stroke-width="1" opacity="1"/><line transform="translate(708,-300)" x2="0" y2="300" stroke="#ddd" stroke-width="1" opacity="1"/><line transform="translate(742,-300)" x2="0" y2="300" stroke="#ddd" stroke-width="1" opacity="1"/><line transform="translate(776,-300)" x2="0" y2="300" stroke="#ddd" stroke-width="1" opacity="1"/><line transform="translate(810,-300)" x2="0" y2="300" stroke="#ddd" stroke-width="1" opacity="1"/><line transform="translate(843,-300)" x2="0" y2="300" stroke="#ddd" stroke-width="1" opacity="1"/><line transform="translate(877,-300)" x2="0" y2="300" stroke="#ddd" stroke-width="1" opacity="1"/><line transform="translate(911,-300)" x2="0" y2="300" stroke="#ddd" stroke-width="1" opacity="1"/><line transform="translate(945,-300)" x2="0" y2="300" stroke="#ddd" stroke-width="1" opacity="1"/><line transform="translate(978,-300)" x2="0" y2="300" stroke="#ddd" stroke-width="1" opacity="1"/><line transform="translate(1012,-300)" x2="0" y2="300" stroke="#ddd" stroke-width="1" opacity="1"/></g></g><path class="foreground" aria-hidden="true" d="" pointer-events="none" display="none"/></g></g><g class="mark-group role-axis" aria-hidden="true"><g transform="translate(0.5,0.5)"><path class="background" aria-hidden="true" d="M0,0h0v0h0Z" pointer-events="none"/><g><g class="mark-rule role-axis-grid" pointer-events="none"><line transform="translate(0,300)" x2="1012" y2="0" stroke="#ddd" stroke-width="1" opacity="1"/><line transform="translate(0,263)" x2="1012" y2="0" stroke="#ddd" stroke-width="1" opacity="1"/><line transform="translate(0,225)" x2="1012" y2="0" stroke="#ddd" stroke-width="1" opacity="1"/><line transform="translate(0,188)" x2="1012" y2="0" stroke="#ddd" stroke-width="1" opacity="1"/><line transform="translate(0,150)" x2="1012" y2="0" stroke="#ddd" stroke-width="1" opacity="1"/><line transform="translate(0,113)" x2="1012" y2="0" stroke="#ddd" stroke-width="1" opacity="1"/><line transform="translate(0,75)" x2="1012" y2="0" stroke="#ddd" stroke-width="1" opacity="1"/><line transform="translate(0,38)" x2="1012" y2="0" stroke="#ddd" stroke-width="1" opacity="1"/><line transform="translate(0,0)" x2="1012" y2="0" stroke="#ddd" stroke-width="1" opacity="1"/></g></g><path class="foreground" aria-hidden="true" d="" pointer-events="none" display="none"/></g></g><g class="mark-group role-axis" role="graphics-symbol" aria-roledescription="axis" aria-label="X-axis titled 'Razón Pensiones/PIB' for a linear scale with values from 2.64 to 2.94"><g transform="translate(0.5,300.5)"><path class="background" aria-hidden="true" d="M0,0h0v0h0Z" pointer-events="none"/><g><g class="mark-rule role-axis-tick" pointer-events="none"><line transform="translate(0,0)" x2="0" y2="5" stroke="#888" stroke-width="1" opacity="1"/><line transform="translate(34,0)" x2="0" y2="5" stroke="#888" stroke-width="1" opacity="1"/><line transform="translate(67,0)" x2="0" y2="5" stroke="#888" stroke-width="1" opacity="1"/><line transform="translate(101,0)" x2="0" y2="5" stroke="#888" stroke-width="1" opacity="1"/><line transform="translate(135,0)" x2="0" y2="5" stroke="#888" stroke-width="1" opacity="1"/><line transform="translate(169,0)" x2="0" y2="5" stroke="#888" stroke-width="1" opacity="1"/><line transform="translate(202,0)" x2="0" y2="5" stroke="#888" stroke-width="1" opacity="1"/><line transform="translate(236,0)" x2="0" y2="5" stroke="#888" stroke-width="1" opacity="1"/><line transform="translate(270,0)" x2="0" y2="5" stroke="#888" stroke-width="1" opacity="1"/><line transform="translate(304,0)" x2="0" y2="5" stroke="#888" stroke-width="1" opacity="1"/><line transform="translate(337,0)" x2="0" y2="5" stroke="#888" stroke-width="1" opacity="1"/><line transform="translate(371,0)" x2="0" y2="5" stroke="#888" stroke-width="1" opacity="1"/><line transform="translate(405,0)" x2="0" y2="5" stroke="#888" stroke-width="1" opacity="1"/><line transform="translate(439,0)" x2="0" y2="5" stroke="#888" stroke-width="1" opacity="1"/><line transform="translate(472,0)" x2="0" y2="5" stroke="#888" stroke-width="1" opacity="1"/><line transform="translate(506,0)" x2="0" y2="5" stroke="#888" stroke-width="1" opacity="1"/><line transform="translate(540,0)" x2="0" y2="5" stroke="#888" stroke-width="1" opacity="1"/><line transform="translate(573,0)" x2="0" y2="5" stroke="#888" stroke-width="1" opacity="1"/><line transform="translate(607,0)" x2="0" y2="5" stroke="#888" stroke-width="1" opacity="1"/><line transform="translate(641,0)" x2="0" y2="5" stroke="#888" stroke-width="1" opacity="1"/><line transform="translate(675,0)" x2="0" y2="5" stroke="#888" stroke-width="1" opacity="1"/><line transform="translate(708,0)" x2="0" y2="5" stroke="#888" stroke-width="1" opacity="1"/><line transform="translate(742,0)" x2="0" y2="5" stroke="#888" stroke-width="1" opacity="1"/><line transform="translate(776,0)" x2="0" y2="5" stroke="#888" stroke-width="1" opacity="1"/><line transform="translate(810,0)" x2="0" y2="5" stroke="#888" stroke-width="1" opacity="1"/><line transform="translate(843,0)" x2="0" y2="5" stroke="#888" stroke-width="1" opacity="1"/><line transform="translate(877,0)" x2="0" y2="5" stroke="#888" stroke-width="1" opacity="1"/><line transform="translate(911,0)" x2="0" y2="5" stroke="#888" stroke-width="1" opacity="1"/><line transform="translate(945,0)" x2="0" y2="5" stroke="#888" stroke-width="1" opacity="1"/><line transform="translate(978,0)" x2="0" y2="5" stroke="#888" stroke-width="1" opacity="1"/><line transform="translate(1012,0)" x2="0" y2="5" stroke="#888" stroke-width="1" opacity="1"/></g><g class="mark-text role-axis-label" pointer-events="none"><text text-anchor="start" transform="translate(0,15)" font-family="sans-serif" font-size="10px" fill="#000" opacity="1">2.64</text><text text-anchor="middle" transform="translate(33.73333333333264,15)" font-family="sans-serif" font-size="10px" fill="#000" opacity="1">2.65</text><text text-anchor="middle" transform="translate(67.46666666666677,15)" font-family="sans-serif" font-size="10px" fill="#000" opacity="1">2.66</text><text text-anchor="middle" transform="translate(101.1999999999994,15)" font-family="sans-serif" font-size="10px" fill="#000" opacity="1">2.67</text><text text-anchor="middle" transform="translate(134.93333333333354,15)" font-family="sans-serif" font-size="10px" fill="#000" opacity="1">2.68</text><text text-anchor="middle" transform="translate(168.66666666666617,15)" font-family="sans-serif" font-size="10px" fill="#000" opacity="1">2.69</text><text text-anchor="middle" transform="translate(202.4000000000003,15)" font-family="sans-serif" font-size="10px" fill="#000" opacity="1">2.70</text><text text-anchor="middle" transform="translate(236.13333333333296,15)" font-family="sans-serif" font-size="10px" fill="#000" opacity="1">2.71</text><text text-anchor="middle" transform="translate(269.8666666666671,15)" font-family="sans-serif" font-size="10px" fill="#000" opacity="1">2.72</text><text text-anchor="middle" transform="translate(303.5999999999997,15)" font-family="sans-serif" font-size="10px" fill="#000" opacity="1">2.73</text><text text-anchor="middle" transform="translate(337.3333333333338,15)" font-family="sans-serif" font-size="10px" fill="#000" opacity="1">2.74</text><text text-anchor="middle" transform="translate(371.0666666666665,15)" font-family="sans-serif" font-size="10px" fill="#000" opacity="1">2.75</text><text text-anchor="middle" transform="translate(404.7999999999991,15)" font-family="sans-serif" font-size="10px" fill="#000" opacity="1">2.76</text><text text-anchor="middle" transform="translate(438.53333333333325,15)" font-family="sans-serif" font-size="10px" fill="#000" opacity="1">2.77</text><text text-anchor="middle" transform="translate(472.2666666666659,15)" font-family="sans-serif" font-size="10px" fill="#000" opacity="1">2.78</text><text text-anchor="middle" transform="translate(506,15)" font-family="sans-serif" font-size="10px" fill="#000" opacity="1">2.79</text><text text-anchor="middle" transform="translate(539.7333333333327,15)" font-family="sans-serif" font-size="10px" fill="#000" opacity="1">2.80</text><text text-anchor="middle" transform="translate(573.4666666666668,15)" font-family="sans-serif" font-size="10px" fill="#000" opacity="1">2.81</text><text text-anchor="middle" transform="translate(607.1999999999994,15)" font-family="sans-serif" font-size="10px" fill="#000" opacity="1">2.82</text><text text-anchor="middle" transform="translate(640.9333333333335,15)" font-family="sans-serif" font-size="10px" fill="#000" opacity="1">2.83</text><text text-anchor="middle" transform="translate(674.6666666666662,15)" font-family="sans-serif" font-size="10px" fill="#000" opacity="1">2.84</text><text text-anchor="middle" transform="translate(708.4000000000003,15)" font-family="sans-serif" font-size="10px" fill="#000" opacity="1">2.85</text><text text-anchor="middle" transform="translate(742.133333333333,15)" font-family="sans-serif" font-size="10px" fill="#000" opacity="1">2.86</text><text text-anchor="middle" transform="translate(775.866666666667,15)" font-family="sans-serif" font-size="10px" fill="#000" opacity="1">2.87</text><text text-anchor="middle" transform="translate(809.5999999999997,15)" font-family="sans-serif" font-size="10px" fill="#000" opacity="1">2.88</text><text text-anchor="middle" transform="translate(843.3333333333338,15)" font-family="sans-serif" font-size="10px" fill="#000" opacity="1">2.89</text><text text-anchor="middle" transform="translate(877.0666666666665,15)" font-family="sans-serif" font-size="10px" fill="#000" opacity="1">2.90</text><text text-anchor="middle" transform="translate(910.8000000000006,15)" font-family="sans-serif" font-size="10px" fill="#000" opacity="1">2.91</text><text text-anchor="middle" transform="translate(944.5333333333332,15)" font-family="sans-serif" font-size="10px" fill="#000" opacity="1">2.92</text><text text-anchor="middle" transform="translate(978.2666666666673,15)" font-family="sans-serif" font-size="10px" fill="#000" opacity="1">2.93</text><text text-anchor="end" transform="translate(1012,15)" font-family="sans-serif" font-size="10px" fill="#000" opacity="1">2.94</text></g><g class="mark-rule role-axis-domain" pointer-events="none"><line transform="translate(0,0)" x2="1012" y2="0" stroke="#888" stroke-width="1" opacity="1"/></g><g class="mark-text role-axis-title" pointer-events="none"><text text-anchor="middle" transform="translate(506,30)" font-family="sans-serif" font-size="11px" font-weight="bold" fill="#000" opacity="1">Razón Pensiones/PIB</text></g></g><path class="foreground" aria-hidden="true" d="" pointer-events="none" display="none"/></g></g><g class="mark-group role-axis" role="graphics-symbol" aria-roledescription="axis" aria-label="Y-axis titled 'Eficiencia Agregada (LSRA)' for a linear scale with values from 0.7 to 1.1"><g transform="translate(0.5,0.5)"><path class="background" aria-hidden="true" d="M0,0h0v0h0Z" pointer-events="none"/><g><g class="mark-rule role-axis-tick" pointer-events="none"><line transform="translate(0,300)" x2="-5" y2="0" stroke="#888" stroke-width="1" opacity="1"/><line transform="translate(0,263)" x2="-5" y2="0" stroke="#888" stroke-width="1" opacity="1"/><line transform="translate(0,225)" x2="-5" y2="0" stroke="#888" stroke-width="1" opacity="1"/><line transform="translate(0,188)" x2="-5" y2="0" stroke="#888" stroke-width="1" opacity="1"/><line transform="translate(0,150)" x2="-5" y2="0" stroke="#888" stroke-width="1" opacity="1"/><line transform="translate(0,113)" x2="-5" y2="0" stroke="#888" stroke-width="1" opacity="1"/><line transform="translate(0,75)" x2="-5" y2="0" stroke="#888" stroke-width="1" opacity="1"/><line transform="translate(0,38)" x2="-5" y2="0" stroke="#888" stroke-width="1" opacity="1"/><line transform="translate(0,0)" x2="-5" y2="0" stroke="#888" stroke-width="1" opacity="1"/></g><g class="mark-text role-axis-label" pointer-events="none"><text text-anchor="end" transform="translate(-7,303)" font-family="sans-serif" font-size="10px" fill="#000" opacity="1">0.70</text><text text-anchor="end" transform="translate(-7,265.5)" font-family="sans-serif" font-size="10px" fill="#000" opacity="1">0.75</text><text text-anchor="end" transform="translate(-7,227.99999999999997)" font-family="sans-serif" font-size="10px" fill="#000" opacity="1">0.80</text><text text-anchor="end" transform="translate(-7,190.5)" font-family="sans-serif" font-size="10px" fill="#000" opacity="1">0.85</text><text text-anchor="end" transform="translate(-7,153)" font-family="sans-serif" font-size="10px" fill="#000" opacity="1">0.90</text><text text-anchor="end" transform="translate(-7,115.50000000000007)" font-family="sans-serif" font-size="10px" fill="#000" opacity="1">0.95</text><text text-anchor="end" transform="translate(-7,78.00000000000003)" font-family="sans-serif" font-size="10px" fill="#000" opacity="1">1.00</text><text text-anchor="end" transform="translate(-7,40.500000000000036)" font-family="sans-serif" font-size="10px" fill="#000" opacity="1">1.05</text><text text-anchor="end" transform="translate(-7,3)" font-family="sans-serif" font-size="10px" fill="#000" opacity="1">1.10</text></g><g class="mark-rule role-axis-domain" pointer-events="none"><line transform="translate(0,300)" x2="0" y2="-300" stroke="#888" stroke-width="1" opacity="1"/></g><g class="mark-text role-axis-title" pointer-events="none"><text text-anchor="middle" transform="translate(-30.755102157592773,150) rotate(-90) translate(0,-2)" font-family="sans-serif" font-size="11px" font-weight="bold" fill="#000" opacity="1">Eficiencia Agregada (LSRA)</text></g></g><path class="foreground" aria-hidden="true" d="" pointer-events="none" display="none"/></g></g><g class="mark-symbol role-mark marks" role="graphics-object" aria-roledescription="symbol mark container"><path aria-label="Razón Pensiones/PIB: 2.64295842183; Eficiencia Agregada (LSRA): 0.797041465443; Razón de Trabajadores Formales: 0.9; Lambda: 0.3" role="graphics-symbol" aria-roledescription="circle" transform="translate(9.979742982968306,227.218900917505)" d="M5.27,0A5.27,5.27,0,1,1,-5.27,0A5.27,5.27,0,1,1,5.27,0" fill="rgb(91, 163, 207)" stroke-width="2" opacity="0.7"/><path aria-label="Razón Pensiones/PIB: 2.67856455815; Eficiencia Agregada (LSRA): 0.789715508832; Razón de Trabajadores Formales: 0.9; Lambda: 0.4" role="graphics-symbol" aria-roledescription="circle" transform="translate(130.09110948100746,232.71336837619933)" d="M6.058,0A6.058,6.058,0,1,1,-6.058,0A6.058,6.058,0,1,1,6.058,0" fill="rgb(91, 163, 207)" stroke-width="2" opacity="0.7"/><path aria-label="Razón Pensiones/PIB: 2.71452430393; Eficiencia Agregada (LSRA): 0.781676713194; Razón de Trabajadores Formales: 0.9; Lambda: 0.5" role="graphics-symbol" aria-roledescription="circle" transform="translate(251.39531860008242,238.74246510428225)" d="M6.755,0A6.755,6.755,0,1,1,-6.755,0A6.755,6.755,0,1,1,6.755,0" fill="rgb(91, 163, 207)" stroke-width="2" opacity="0.7"/><path aria-label="Razón Pensiones/PIB: 2.75084090973; Eficiencia Agregada (LSRA): 0.772859065959; Razón de Trabajadores Formales: 0.9; Lambda: 0.6" role="graphics-symbol" aria-roledescription="circle" transform="translate(373.9033354827595,245.35570053107674)" d="M7.386,0A7.386,7.386,0,1,1,-7.386,0A7.386,7.386,0,1,1,7.386,0" fill="rgb(91, 163, 207)" stroke-width="2" opacity="0.7"/><path aria-label="Razón Pensiones/PIB: 2.78746523587; Eficiencia Agregada (LSRA): 0.76325462978; Razón de Trabajadores Formales: 0.9; Lambda: 0.7" role="graphics-symbol" aria-roledescription="circle" transform="translate(497.44939565165623,252.55902766526876)" d="M7.967,0A7.967,7.967,0,1,1,-7.967,0A7.967,7.967,0,1,1,7.967,0" fill="rgb(91, 163, 207)" stroke-width="2" opacity="0.7"/><path aria-label="Razón Pensiones/PIB: 2.82445445449; Eficiencia Agregada (LSRA): 0.752745262153; Razón de Trabajadores Formales: 0.9; Lambda: 0.8" role="graphics-symbol" aria-roledescription="circle" transform="translate(622.2263598018241,260.441053385476)" d="M8.509,0A8.509,8.509,0,1,1,-8.509,0A8.509,8.509,0,1,1,8.509,0" fill="rgb(91, 163, 207)" stroke-width="2" opacity="0.7"/><path aria-label="Razón Pensiones/PIB: 2.86182699097; Eficiencia Agregada (LSRA): 0.741260834284; Razón de Trabajadores Formales: 0.9; Lambda: 0.9" role="graphics-symbol" aria-roledescription="circle" transform="translate(748.2963828707224,269.05437428734393)" d="M9.018,0A9.018,9.018,0,1,1,-9.018,0A9.018,9.018,0,1,1,9.018,0" fill="rgb(91, 163, 207)" stroke-width="2" opacity="0.7"/><path aria-label="Razón Pensiones/PIB: 2.899605144; Eficiencia Agregada (LSRA): 0.728221677458; Razón de Trabajadores Formales: 0.9; Lambda: 1" role="graphics-symbol" aria-roledescription="circle" transform="translate(875.7346857730756,278.83374190684407)" d="M9.5,0A9.5,9.5,0,1,1,-9.5,0A9.5,9.5,0,1,1,9.5,0" fill="rgb(91, 163, 207)" stroke-width="2" opacity="0.7"/><path aria-label="Razón Pensiones/PIB: 2.93775312335; Eficiencia Agregada (LSRA): 0.708377181649; Razón de Trabajadores Formales: 0.95; Lambda: 0.1" role="graphics-symbol" aria-roledescription="circle" transform="translate(1004.4205361103453,293.7171137635162)" d="M3.15,0A3.15,3.15,0,1,1,-3.15,0A3.15,3.15,0,1,1,3.15,0" fill="rgb(10, 74, 144)" stroke-width="2" opacity="0.7"/><path aria-label="Razón Pensiones/PIB: 2.64800335764; Eficiencia Agregada (LSRA): 1.08110202229; Razón de Trabajadores Formales: 0.95; Lambda: 0.2" role="graphics-symbol" aria-roledescription="circle" transform="translate(26.99799309058734,14.173483279941056)" d="M4.342,0A4.342,4.342,0,1,1,-4.342,0A4.342,4.342,0,1,1,4.342,0" fill="rgb(10, 74, 144)" stroke-width="2" opacity="0.7"/><path aria-label="Razón Pensiones/PIB: 2.68235110626; Eficiencia Agregada (LSRA): 1.07522222714; Razón de Trabajadores Formales: 0.95; Lambda: 0.3" role="graphics-symbol" aria-roledescription="circle" transform="translate(142.8643984573209,18.58332964166587)" d="M5.27,0A5.27,5.27,0,1,1,-5.27,0A5.27,5.27,0,1,1,5.27,0" fill="rgb(10, 74, 144)" stroke-width="2" opacity="0.7"/><path aria-label="Razón Pensiones/PIB: 2.71707434782; Eficiencia Agregada (LSRA): 1.06873955355; Razón de Trabajadores Formales: 0.95; Lambda: 0.4" role="graphics-symbol" aria-roledescription="circle" transform="translate(259.99746665884305,23.445334838947286)" d="M6.058,0A6.058,6.058,0,1,1,-6.058,0A6.058,6.058,0,1,1,6.058,0" fill="rgb(10, 74, 144)" stroke-width="2" opacity="0.7"/><path aria-label="Razón Pensiones/PIB: 2.75217434283; Eficiencia Agregada (LSRA): 1.06149165295; Razón de Trabajadores Formales: 0.95; Lambda: 0.5" role="graphics-symbol" aria-roledescription="circle" transform="translate(378.40144981689724,28.881260287268894)" d="M6.755,0A6.755,6.755,0,1,1,-6.755,0A6.755,6.755,0,1,1,6.755,0" fill="rgb(10, 74, 144)" stroke-width="2" opacity="0.7"/><path aria-label="Razón Pensiones/PIB: 2.78760273516; Eficiencia Agregada (LSRA): 1.05349675184; Razón de Trabajadores Formales: 0.95; Lambda: 0.6" role="graphics-symbol" aria-roledescription="circle" transform="translate(497.91322659738046,34.877436118276925)" d="M7.386,0A7.386,7.386,0,1,1,-7.386,0A7.386,7.386,0,1,1,7.386,0" fill="rgb(10, 74, 144)" stroke-width="2" opacity="0.7"/><path aria-label="Razón Pensiones/PIB: 2.82340359454; Eficiencia Agregada (LSRA): 1.04480049059; Razón de Trabajadores Formales: 0.95; Lambda: 0.7" role="graphics-symbol" aria-roledescription="circle" transform="translate(618.6814589066618,41.3996320589215)" d="M7.967,0A7.967,7.967,0,1,1,-7.967,0A7.967,7.967,0,1,1,7.967,0" fill="rgb(10, 74, 144)" stroke-width="2" opacity="0.7"/><path aria-label="Razón Pensiones/PIB: 2.85959544503; Eficiencia Agregada (LSRA): 1.0351784152; Razón de Trabajadores Formales: 0.95; Lambda: 0.8" role="graphics-symbol" aria-roledescription="circle" transform="translate(740.7686345609549,48.61618859785188)" d="M8.509,0A8.509,8.509,0,1,1,-8.509,0A8.509,8.509,0,1,1,8.509,0" fill="rgb(10, 74, 144)" stroke-width="2" opacity="0.7"/><path aria-label="Razón Pensiones/PIB: 2.89619748506; Eficiencia Agregada (LSRA): 1.02461301142; Razón de Trabajadores Formales: 0.95; Lambda: 0.9" role="graphics-symbol" aria-roledescription="circle" transform="translate(864.2395162672213,56.54024143709398)" d="M9.018,0A9.018,9.018,0,1,1,-9.018,0A9.018,9.018,0,1,1,9.018,0" fill="rgb(10, 74, 144)" stroke-width="2" opacity="0.7"/><path aria-label="Razón Pensiones/PIB: 2.93322635457; Eficiencia Agregada (LSRA): 1.0125318231; Razón de Trabajadores Formales: 0.95; Lambda: 1" role="graphics-symbol" aria-roledescription="circle" transform="translate(989.1502360915396,65.60113267418885)" d="M9.5,0A9.5,9.5,0,1,1,-9.5,0A9.5,9.5,0,1,1,9.5,0" fill="rgb(10, 74, 144)" stroke-width="2" opacity="0.7"/></g><g class="mark-group role-legend" role="graphics-symbol" aria-roledescription="legend" aria-label="Gradient legend titled 'Razón de Trabajadores Formales' for fill color with values from 0.85 to 0.95"><g transform="translate(0,350)"><path class="background" aria-hidden="true" d="M0,0h200v44h-200Z" pointer-events="none"/><g><g class="mark-group role-legend-entry"><g transform="translate(0,16)"><path class="background" aria-hidden="true" d="M0,0h0v0h0Z" pointer-events="none"/><g><g class="mark-rect role-legend-gradient" pointer-events="none"><path d="M0,0h200v16h-200Z" fill="url(#gradient_0)" stroke="#ddd" stroke-width="0" opacity="0.7"/></g><g class="mark-text role-legend-label" pointer-events="none"><text text-anchor="middle" transform="translate(20.000000000000025,26)" font-family="sans-serif" font-size="10px" fill="#000" opacity="1">0.86</text><text text-anchor="middle" transform="translate(60.000000000000064,26)" font-family="sans-serif" font-size="10px" fill="#000" opacity="1">0.88</text><text text-anchor="middle" transform="translate(100.00000000000011,26)" font-family="sans-serif" font-size="10px" fill="#000" opacity="1">0.90</text><text text-anchor="middle" transform="translate(140.00000000000014,26)" font-family="sans-serif" font-size="10px" fill="#000" opacity="1">0.92</text><text text-anchor="middle" transform="translate(179.99999999999997,26)" font-family="sans-serif" font-size="10px" fill="#000" opacity="1">0.94</text></g></g><path class="foreground" aria-hidden="true" d="" pointer-events="none" display="none"/></g></g><g class="mark-text role-legend-title" pointer-events="none"><text text-anchor="start" transform="translate(0,9)" font-family="sans-serif" font-size="11px" font-weight="bold" fill="#000" opacity="1">Razón de Trabajadores Formales</text></g></g><path class="foreground" aria-hidden="true" d="" pointer-events="none" display="none"/></g></g><g class="mark-group role-legend" role="graphics-symbol" aria-roledescription="legend" aria-label="Symbol legend titled 'Lambda' for size with values from 0.0 to 1.0"><g transform="translate(208,350)"><path class="background" aria-hidden="true" d="M0,0h261v38h-261Z" pointer-events="none"/><g><g class="mark-group role-legend-entry"><g transform="translate(0,16)"><path class="background" aria-hidden="true" d="M0,0h0v0h0Z" pointer-events="none"/><g><g class="mark-group role-scope" role="graphics-object" aria-roledescription="group mark container"><g transform="translate(0,6)"><path class="background" aria-hidden="true" d="M0,0h28.061224937438965v10h-28.061224937438965Z" pointer-events="none" opacity="1"/><g><g class="mark-symbol role-legend-symbol" pointer-events="none"><path transform="translate(5,5)" d="M1,0A1,1,0,1,1,-1,0A1,1,0,1,1,1,0" fill="black" fill-opacity="0.7" stroke-width="1.5" opacity="0.7"/></g><g class="mark-text role-legend-label" pointer-events="none"><text text-anchor="start" transform="translate(14,8)" font-family="sans-serif" font-size="10px" fill="#000" opacity="1">0.0</text></g></g><path class="foreground" aria-hidden="true" d="" pointer-events="none" display="none"/></g><g transform="translate(40,5.329170665390759)"><path class="background" aria-hidden="true" d="M0,0h29.061224937438965v11.341658669218482h-29.061224937438965Z" pointer-events="none" opacity="1"/><g><g class="mark-symbol role-legend-symbol" pointer-events="none"><path transform="translate(5.5,5.5)" d="M4.342,0A4.342,4.342,0,1,1,-4.342,0A4.342,4.342,0,1,1,4.342,0" fill="black" fill-opacity="0.7" stroke-width="1.5" opacity="0.7"/></g><g class="mark-text role-legend-label" pointer-events="none"><text text-anchor="start" transform="translate(15,8.5)" font-family="sans-serif" font-size="10px" fill="#000" opacity="1">0.2</text></g></g><path class="foreground" aria-hidden="true" d="" pointer-events="none" display="none"/></g><g transform="translate(81,3.720973753827808)"><path class="background" aria-hidden="true" d="M0,0h32.061224937438965v14.558052492344386h-32.061224937438965Z" pointer-events="none" opacity="1"/><g><g class="mark-symbol role-legend-symbol" pointer-events="none"><path transform="translate(7,7)" d="M6.058,0A6.058,6.058,0,1,1,-6.058,0A6.058,6.058,0,1,1,6.058,0" fill="black" fill-opacity="0.7" stroke-width="1.5" opacity="0.7"/></g><g class="mark-text role-legend-label" pointer-events="none"><text text-anchor="start" transform="translate(18,10)" font-family="sans-serif" font-size="10px" fill="#000" opacity="1">0.4</text></g></g><path class="foreground" aria-hidden="true" d="" pointer-events="none" display="none"/></g><g transform="translate(125,2.3071014094616675)"><path class="background" aria-hidden="true" d="M0,0h35.061224937438965v17.38579718107667h-35.061224937438965Z" pointer-events="none" opacity="1"/><g><g class="mark-symbol role-legend-symbol" pointer-events="none"><path transform="translate(8.5,8.5)" d="M7.386,0A7.386,7.386,0,1,1,-7.386,0A7.386,7.386,0,1,1,7.386,0" fill="black" fill-opacity="0.7" stroke-width="1.5" opacity="0.7"/></g><g class="mark-text role-legend-label" pointer-events="none"><text text-anchor="start" transform="translate(21,11.5)" font-family="sans-serif" font-size="10px" fill="#000" opacity="1">0.6</text></g></g><path class="foreground" aria-hidden="true" d="" pointer-events="none" display="none"/></g><g transform="translate(172,1.2455905227634716)"><path class="background" aria-hidden="true" d="M0,0h37.061224937438965v19.508818954473057h-37.061224937438965Z" pointer-events="none" opacity="1"/><g><g class="mark-symbol role-legend-symbol" pointer-events="none"><path transform="translate(9.5,9.5)" d="M8.509,0A8.509,8.509,0,1,1,-8.509,0A8.509,8.509,0,1,1,8.509,0" fill="black" fill-opacity="0.7" stroke-width="1.5" opacity="0.7"/></g><g class="mark-text role-legend-label" pointer-events="none"><text text-anchor="start" transform="translate(23,12.5)" font-family="sans-serif" font-size="10px" fill="#000" opacity="1">0.8</text></g></g><path class="foreground" aria-hidden="true" d="" pointer-events="none" display="none"/></g><g transform="translate(221,0.25)"><path class="background" aria-hidden="true" d="M0,0h39.061224937438965v21.5h-39.061224937438965Z" pointer-events="none" opacity="1"/><g><g class="mark-symbol role-legend-symbol" pointer-events="none"><path transform="translate(10.5,10.5)" d="M9.5,0A9.5,9.5,0,1,1,-9.5,0A9.5,9.5,0,1,1,9.5,0" fill="black" fill-opacity="0.7" stroke-width="1.5" opacity="0.7"/></g><g class="mark-text role-legend-label" pointer-events="none"><text text-anchor="start" transform="translate(25,13.5)" font-family="sans-serif" font-size="10px" fill="#000" opacity="1">1.0</text></g></g><path class="foreground" aria-hidden="true" d="" pointer-events="none" display="none"/></g></g></g><path class="foreground" aria-hidden="true" d="" pointer-events="none" display="none"/></g></g><g class="mark-text role-legend-title" pointer-events="none"><text text-anchor="start" transform="translate(0,9)" font-family="sans-serif" font-size="11px" font-weight="bold" fill="#000" opacity="1">Lambda</text></g></g><path class="foreground" aria-hidden="true" d="" pointer-events="none" display="none"/></g></g></g><path class="foreground" aria-hidden="true" d="" display="none"/></g></g></g><defs><linearGradient id="gradient_0" x1="0" x2="1" y1="0" y2="0"><stop offset="0" stop-color="rgb(207, 225, 242)"/><stop offset="0.05000000000000006" stop-color="rgb(199, 221, 239)"/><stop offset="0.10000000000000012" stop-color="rgb(190, 216, 236)"/><stop offset="0.15000000000000016" stop-color="rgb(179, 211, 233)"/><stop offset="0.20000000000000023" stop-color="rgb(168, 206, 229)"/><stop offset="0.2500000000000003" stop-color="rgb(155, 199, 225)"/><stop offset="0.3000000000000003" stop-color="rgb(143, 193, 222)"/><stop offset="0.35000000000000037" stop-color="rgb(129, 185, 218)"/><stop offset="0.40000000000000047" stop-color="rgb(116, 178, 215)"/><stop offset="0.4500000000000005" stop-color="rgb(103, 170, 211)"/><stop offset="0.5000000000000006" stop-color="rgb(91, 163, 207)"/><stop offset="0.5500000000000006" stop-color="rgb(80, 154, 202)"/><stop offset="0.6000000000000006" stop-color="rgb(69, 146, 198)"/><stop offset="0.6500000000000007" stop-color="rgb(59, 137, 193)"/><stop offset="0.7000000000000007" stop-color="rgb(49, 129, 189)"/><stop offset="0.7500000000000009" stop-color="rgb(40, 120, 183)"/><stop offset="0.8000000000000009" stop-color="rgb(32, 111, 178)"/><stop offset="0.850000000000001" stop-color="rgb(25, 101, 171)"/><stop offset="0.8999999999999999" stop-color="rgb(18, 92, 164)"/><stop offset="0.95" stop-color="rgb(14, 83, 154)"/><stop offset="1" stop-color="rgb(10, 74, 144)"/></linearGradient></defs></svg>